<svg xmlns="http://www.w3.org/2000/svg" xmlns:xlink="http://www.w3.org/1999/xlink" width="200" height="200" viewBox="0 0 200 200">
  <defs>
    <clipPath id="clip-path">
      <rect id="Rectangle_17" data-name="Rectangle 17" width="200" height="200"/>
    </clipPath>
  </defs>
  <g id="analytics" clip-path="url(#clip-path)">
    <g id="Group_236" data-name="Group 236" transform="translate(-2783 -2470.011)">
      <g id="Group_215" data-name="Group 215" transform="translate(2798 2485)">
        <g id="diagram">
          <path id="Union_2" data-name="Union 2" d="M2435,10V5.769h170V10ZM2573.833-4.167v-99.167h19.833V-4.167Zm-31.166,0v-59.5H2562.5v59.5Zm-31.167,0V-43.834h19.833V-4.167Zm-31.167,0v-25.5h19.833v25.5Zm-31.165,0v-17H2469v17Z" transform="translate(-2435 159.989)" fill="#61a2f9"/>
        </g>
      </g>
      <path id="Union_2-2" data-name="Union 2" d="M2446.094-38.167A151.207,151.207,0,0,0,2575.7-138.712l4.484-12.789-16.422,8.217a2.835,2.835,0,0,1-3.8-1.269,2.836,2.836,0,0,1,1.27-3.8l22.667-11.334a2.835,2.835,0,0,1,3.8,1.266h0l11.334,22.666a2.835,2.835,0,0,1-1.29,3.794,2.835,2.835,0,0,1-1.247.292,2.831,2.831,0,0,1-2.551-1.566l-8.326-16.643-4.572,13.036A156.871,156.871,0,0,1,2446.573-32.5Z" transform="translate(352 2646.989)" fill="#dd7219"/>
    </g>
  </g>
</svg>
