<svg xmlns="http://www.w3.org/2000/svg" xmlns:xlink="http://www.w3.org/1999/xlink" width="200" height="200" viewBox="0 0 200 200">
  <defs>
    <clipPath id="clip-path">
      <rect id="Rectangle_21" data-name="Rectangle 21" width="200" height="200"/>
    </clipPath>
  </defs>
  <g id="loan" clip-path="url(#clip-path)">
    <g id="Group_238" data-name="Group 238" transform="translate(-3522 -4172.978)">
      <g id="Group_237" data-name="Group 237" transform="translate(3540 4190.978)">
        <g id="XMLID_1125_" style="isolation: isolate">
          <g id="XMLID_1410_" transform="translate(35.969)">
            <path id="XMLID_1408_" d="M219.769,13.4a6.875,6.875,0,0,0,9.723,0,11.683,11.683,0,0,1,16.523,0,6.875,6.875,0,0,0,9.723,0l.041-.041a2.667,2.667,0,0,1,4.4,2.761l-7.446,21.43H222.849l-7.482-21.383a2.667,2.667,0,0,1,4.4-2.767Z" transform="translate(-182.697 -9.978)" fill="none" stroke="#61a2f9" stroke-width="4"/>
            <path id="XMLID_1399_" d="M211.844,117.138,187.308,92.6H158.462l-24.536,24.536c-16.589,16.589-21.234,39.823-12.124,60.317,5.185-1.459,17.517-6.853,29.06-2.69,12.491,4.506,23.555,10.008,34.471,15.5,2.213,1.56,4.339,9.931-2.228,15.33,14.2-2.883,15.7-8.278,26.079-17.29,1.136-1.267,14.937-13.049,15.125-13.537C231.856,155.285,227.766,133.06,211.844,117.138Z" transform="translate(-117.79 -65.03)" fill="none" stroke="#61a2f9" stroke-width="4"/>
          </g>
          <path id="XMLID_1411_" d="M98,378.325h64.815a49.443,49.443,0,0,0,34.46-13.987l32.676-31.757a9.425,9.425,0,1,0-12.83-13.809L184.382,347.85a30.13,30.13,0,0,1-20.007,7.6l-34.166-10.4,31.3,9.952a9.478,9.478,0,0,0,6.966-17.581l-23.558-11.283a39.249,39.249,0,0,0-30.482-1.446L98.069,330.7Z" transform="translate(-68.634 -214.143)" fill="none" stroke="#61a2f9" stroke-width="4"/>
          <path id="XMLID_1218_" d="M33.137,345.98H16.229A6.37,6.37,0,0,0,10,352.48v41.334a6.37,6.37,0,0,0,6.229,6.5H33.137a6.37,6.37,0,0,0,6.229-6.5V352.482A6.37,6.37,0,0,0,33.137,345.98Z" transform="translate(-10 -233.856)" fill="#61a2f9"/>
        </g>
        <path id="Path_287" data-name="Path 287" d="M4.083-22.617l-1.355,4.2H19.871a7.256,7.256,0,0,1-2.846,4.337c-2.168,1.491-5.421,2.3-9.69,2.3H3.2v4.941A8.071,8.071,0,0,1,7.674-5.48,15.554,15.554,0,0,1,11.13-1.95L23.259,14.109H33.282L18.787-4.254A34.2,34.2,0,0,0,15.6-7.913a16.738,16.738,0,0,0,8.673-4.337,11.257,11.257,0,0,0,2.981-6.166h7.25l1.423-4.2H27.392a14.152,14.152,0,0,0-2.981-7.454h10.1l1.355-4.2H4.015l-1.423,4.2H9.639a11.317,11.317,0,0,1,7.725,2.3,8.065,8.065,0,0,1,2.643,5.15Z" transform="translate(70.119 90.169)" fill="#dd7219"/>
      </g>
    </g>
  </g>
</svg>
