<svg xmlns="http://www.w3.org/2000/svg" xmlns:xlink="http://www.w3.org/1999/xlink" width="200" height="200" viewBox="0 0 200 200">
  <defs>
    <clipPath id="clip-path">
      <rect id="Rectangle_22" data-name="Rectangle 22" width="200" height="200"/>
    </clipPath>
  </defs>
  <g id="Group_3324" data-name="Group 3324" transform="translate(-7560 -2601)">
    <g id="Group_223" data-name="Group 223" transform="translate(1911 -2519)">
      <path id="Path_287" data-name="Path 287" d="M4.083-22.617l-1.355,4.2H19.871a7.256,7.256,0,0,1-2.846,4.337c-2.168,1.491-5.421,2.3-9.69,2.3H3.2v4.941A8.071,8.071,0,0,1,7.674-5.48,15.554,15.554,0,0,1,11.13-1.95L23.259,14.109H33.282L18.787-4.254A34.2,34.2,0,0,0,15.6-7.913a16.738,16.738,0,0,0,8.673-4.337,11.257,11.257,0,0,0,2.981-6.166H34.5l1.423-4.2H27.392a14.152,14.152,0,0,0-2.981-7.454h10.1l1.355-4.2H4.015l-1.423,4.2H9.639a11.317,11.317,0,0,1,7.725,2.3,8.065,8.065,0,0,1,2.643,5.15Z" transform="translate(5729.408 5230.272)" fill="#dd7219"/>
    </g>
    <path id="Path_1603" data-name="Path 1603" d="M7599.01,2627.152v144.969s1.6,8.741,9.053,1.918,10.016-11.331,16.754-4.267,9.3,9.3,9.3,9.3,4.59,6.05,12.172-2.048,8.688-8.688,8.688-8.688,4.376-5.81,10.145,0,11.1,10.736,11.1,10.736,4.533,4.824,9.162,0,9.309-9.3,9.309-9.3,4.8-7.951,10.494-1.438a82.556,82.556,0,0,0,8.368,8.688s6.362,3.473,6.5-2.983,0-144.128,0-144.128-.736-10.826-7.779-4.275-7.635,7.163-7.635,7.163-4.624,5.486-11.646-1.751-8.262-8.081-8.262-8.081-4.411-6.513-9.8,0-9.339,9.218-9.339,9.218-5.444,6.7-11.564.615-9.669-9.132-9.669-9.132-4.939-7.106-11.266,0c-4.556,4.79-6.339,6.613-6.339,6.613s-7.785,9.281-15.652,0c-4.787-4.431-6.135-5.493-6.135-5.493s-5.947-4.053-5.953,2.366" fill="none" stroke="#61a2f9" stroke-width="4"/>
  </g>
</svg>
