<svg xmlns="http://www.w3.org/2000/svg" xmlns:xlink="http://www.w3.org/1999/xlink" width="200" height="200" viewBox="0 0 200 200">
  <defs>
    <clipPath id="clip-path">
      <rect id="Rectangle_19" data-name="Rectangle 19" width="200" height="200"/>
    </clipPath>
  </defs>
  <g id="Forex" clip-path="url(#clip-path)">
    <g id="Group_235" data-name="Group 235" transform="translate(-2885.004 -3016)">
      <g id="Group_222" data-name="Group 222" transform="translate(2902.004 3064)" style="isolation: isolate">
        <g id="Group_218" data-name="Group 218">
          <g id="Group_217" data-name="Group 217">
            <g id="Group_216" data-name="Group 216">
              <g id="surface1">
                <path id="Path_218" data-name="Path 218" d="M0,90.358v-76.2A13.856,13.856,0,0,1,13.861.3H152.409a13.856,13.856,0,0,1,13.855,13.854v76.2A13.856,13.856,0,0,1,152.41,104.21H13.859A13.857,13.857,0,0,1,0,90.355Zm0,0" transform="translate(-0.004 -0.301)" fill="none" stroke="#61a2f9" stroke-width="4"/>
                <path id="Path_220" data-name="Path 220" d="M40.832,163.609H181.661v6.928H40.832Zm0,0" transform="translate(-26.977 -101.742)" fill="#61a2f9"/>
                <path id="Path_226" data-name="Path 226" d="M40.832,163.609H181.661v6.928H40.832Zm0,0" transform="translate(-26.977 -84.774)" fill="#61a2f9"/>
              </g>
            </g>
          </g>
          <g id="Ellipse_4" data-name="Ellipse 4" transform="translate(111.233 11.057)" fill="none" stroke="#dd7219" stroke-width="4">
            <circle cx="20.5" cy="20.5" r="20.5" stroke="none"/>
            <circle cx="20.5" cy="20.5" r="18.5" fill="none"/>
          </g>
        </g>
        <path id="Path_286" data-name="Path 286" d="M11.133-5.654a3.46,3.46,0,0,0-.139-1.04,2.181,2.181,0,0,0-.439-.784,3.3,3.3,0,0,0-.784-.637A9.324,9.324,0,0,0,8.6-8.7Q7.15-9.286,5.934-9.887a9.494,9.494,0,0,1-2.095-1.377A5.447,5.447,0,0,1,2.476-13.1a6.087,6.087,0,0,1-.483-2.549,5.812,5.812,0,0,1,.439-2.285,5.353,5.353,0,0,1,1.245-1.809A6.334,6.334,0,0,1,5.61-20.984a8.488,8.488,0,0,1,2.5-.608v-3.091h2.329v3.149A7.567,7.567,0,0,1,12.8-20.8a5.955,5.955,0,0,1,1.816,1.414,6.231,6.231,0,0,1,1.165,2.043,7.853,7.853,0,0,1,.41,2.607H11.235a5.363,5.363,0,0,0-.168-1.436,2.786,2.786,0,0,0-.476-.989,1.836,1.836,0,0,0-.718-.564,2.244,2.244,0,0,0-.894-.176,2.165,2.165,0,0,0-.93.183,1.716,1.716,0,0,0-.63.491,2.06,2.06,0,0,0-.359.725,3.265,3.265,0,0,0-.117.886,3.144,3.144,0,0,0,.117.894,1.958,1.958,0,0,0,.41.732,3.626,3.626,0,0,0,.784.652,9,9,0,0,0,1.223.637q1.421.6,2.629,1.223a9.827,9.827,0,0,1,2.087,1.414A5.785,5.785,0,0,1,15.57-8.218a5.894,5.894,0,0,1,.5,2.534,6.094,6.094,0,0,1-.425,2.336,5.241,5.241,0,0,1-1.2,1.787A6,6,0,0,1,12.576-.344a8.288,8.288,0,0,1-2.424.593V3.193H7.822V.234A10.128,10.128,0,0,1,5.369-.337,6.313,6.313,0,0,1,3.252-1.626a6.214,6.214,0,0,1-1.48-2.131A7.716,7.716,0,0,1,1.215-6.84H6.152a4.879,4.879,0,0,0,.234,1.633,2.789,2.789,0,0,0,.63,1.047,2.275,2.275,0,0,0,.908.564,3.4,3.4,0,0,0,1.069.168A2.388,2.388,0,0,0,9.954-3.6a1.863,1.863,0,0,0,.667-.476,1.9,1.9,0,0,0,.388-.7,2.938,2.938,0,0,0,.124-.878Z" transform="translate(122.233 42.057)" fill="#dd7219"/>
      </g>
    </g>
  </g>
</svg>
