<svg xmlns="http://www.w3.org/2000/svg" xmlns:xlink="http://www.w3.org/1999/xlink" width="200" height="200" viewBox="0 0 200 200">
  <defs>
    <clipPath id="clip-path">
      <rect id="Rectangle_20" data-name="Rectangle 20" width="200" height="200"/>
    </clipPath>
  </defs>
  <g id="Investment" clip-path="url(#clip-path)">
    <g id="Group_234" data-name="Group 234" transform="translate(-3497.924 -2903.92)">
      <g id="plant" transform="translate(3513 2919)" style="isolation: isolate">
        <g id="Group_233" data-name="Group 233">
          <g id="Group_232" data-name="Group 232">
            <path id="Path_243" data-name="Path 243" d="M155.97,112.452h0l-12.17,4.057a12.847,12.847,0,0,0-8.016-8.086A14.172,14.172,0,0,0,120.961,96.4,24.087,24.087,0,0,0,98.782,85.11a11.356,11.356,0,0,0-7.511-7.991,54.923,54.923,0,0,1,13.766-22.8c.342.391.661.8,1.023,1.174a30.54,30.54,0,0,0,21.64,9.166c.574,0,1.151-.017,1.724-.052a24.848,24.848,0,0,0,18.62-9.739c12.329-16.218,21.4-48.81,21.78-50.19a2.831,2.831,0,0,0-2.362-3.561C165.791.895,126.34-4.057,106.618,12.6a25.621,25.621,0,0,0-3.77,3.941,64.059,64.059,0,0,0-23.873-1.934,2.833,2.833,0,0,0-2.384,3.645c.189.614,4.689,15.116,10.88,22.379A14.088,14.088,0,0,0,98.339,45.4c.406,0,.818-.031,1.229-.062a32,32,0,0,0,2.075,4.253A60.4,60.4,0,0,0,85.5,76.808a11.421,11.421,0,0,0-6.725,4.261,19.754,19.754,0,0,0-22.63,4.816,16.473,16.473,0,0,0-5.168-.837A17,17,0,0,0,34.241,99.21H29a12.738,12.738,0,0,0-10.587-5.664H12.744A12.758,12.758,0,0,0,0,106.29v50.977a12.758,12.758,0,0,0,12.744,12.744h5.664a12.618,12.618,0,0,0,7.911-2.832H99.972a22.651,22.651,0,0,0,11.781-3.3l53.085-32.313a10.6,10.6,0,0,0-8.867-19.111ZM102.955,32.346a21.2,21.2,0,0,1,7.316-15.419c10.843-9.154,29.265-10.959,42.106-10.959,4.594,0,8.474.231,11.036.438-2.618,8.659-10.385,32.542-19.88,45.034a19.277,19.277,0,0,1-14.456,7.513,24.664,24.664,0,0,1-18.959-7.409c-.36-.37-.684-.776-1.02-1.171a96.542,96.542,0,0,1,19.59-13.759,2.832,2.832,0,1,0-2.49-5.088,99.055,99.055,0,0,0-20.333,14.031,26.306,26.306,0,0,1-2.91-13.211ZM97.3,32.068a31.223,31.223,0,0,0,.619,7.652,8.323,8.323,0,0,1-6.126-2.757,62.056,62.056,0,0,1-8.63-16.978,55.591,55.591,0,0,1,16.682,1.56A28.369,28.369,0,0,0,97.3,32.068Zm-71.809,125.2a7.089,7.089,0,0,1-7.08,7.08H12.744a7.088,7.088,0,0,1-7.08-7.08V106.29a7.089,7.089,0,0,1,7.08-7.08h5.664a7.088,7.088,0,0,1,7.08,7.08ZM50.977,90.713a11.186,11.186,0,0,1,4.833,1.131,2.836,2.836,0,0,0,3.514-.9A14.1,14.1,0,0,1,78.36,87.253a2.832,2.832,0,0,0,4.162-1.383,5.6,5.6,0,0,1,5.047-3.62c.076.006.152.023.228.023s.135-.031.205-.036a5.634,5.634,0,0,1,5.462,5.491c-.011.079-.04.347-.045.426a2.832,2.832,0,0,0,3.4,2.935,18.6,18.6,0,0,1,3.723-.376A18.341,18.341,0,0,1,116.92,100.75a2.828,2.828,0,0,0,3.109,1.478,8.537,8.537,0,0,1,10.248,8.185c-.007.094-.012.19-.012.266a2.832,2.832,0,0,0,2.432,2.8,7.1,7.1,0,0,1,5.713,4.825l-34.859,11.621a8.489,8.489,0,0,1-2.687.435H99.233A13.035,13.035,0,0,0,98.175,119.2l-.252-.416a17.071,17.071,0,0,0-14.57-8.251H68.541a23.1,23.1,0,0,1-14.379-5.043A28.77,28.77,0,0,0,39.967,99.48,11.331,11.331,0,0,1,50.977,90.713ZM164.17,123.448a4.872,4.872,0,0,1-2.278,3.276l-53.086,32.314a16.99,16.99,0,0,1-8.835,2.477H30.37a12.588,12.588,0,0,0,.783-4.248V106.29a12.433,12.433,0,0,0-.143-1.416h5.236a23.1,23.1,0,0,1,14.379,5.043A28.782,28.782,0,0,0,68.541,116.2H83.354a11.384,11.384,0,0,1,9.715,5.5l.252.416a7.4,7.4,0,0,1-.42,8.24H75.687a28.219,28.219,0,0,0-15.708,4.757L57.9,136.5a2.832,2.832,0,1,0,3.141,4.712l2.076-1.383a22.578,22.578,0,0,1,12.567-3.8h25.173a14.172,14.172,0,0,0,4.478-.726l36.133-12.045c.046,0,.085.027.131.027a2.775,2.775,0,0,0,1.734-.648l14.425-4.808a4.925,4.925,0,0,1,5.512,1.733,4.874,4.874,0,0,1,.9,3.891Z" transform="translate(0 -0.26)" fill="#61a2f9"/>
            <path id="Path_244" data-name="Path 244" d="M190.426,284.078a2.833,2.833,0,0,0,3.34-2.211,4.261,4.261,0,0,1,4.164-3.4,4.21,4.21,0,0,1,2.547.848,2.831,2.831,0,1,0,3.4-4.527,9.823,9.823,0,0,0-5.949-1.984,9.942,9.942,0,0,0-9.715,7.932,2.832,2.832,0,0,0,2.213,3.342Z" transform="translate(-125.711 -182.353)" fill="#61a2f9"/>
            <path id="Path_245" data-name="Path 245" d="M283.161,296.416a2.831,2.831,0,0,0,2.829-.178h0a4.261,4.261,0,0,1,5.345.544,4.208,4.208,0,0,1,1.2,2.4,2.832,2.832,0,0,0,2.8,2.432,3.1,3.1,0,0,0,.4-.028,2.834,2.834,0,0,0,2.4-3.2,9.915,9.915,0,0,0-15.283-6.867,2.832,2.832,0,0,0,.3,4.9Z" transform="translate(-188.135 -193.755)" fill="#61a2f9"/>
          </g>
        </g>
      </g>
      <g id="plant-2" data-name="plant" transform="translate(3589.333 2919)">
        <g id="Group_233-2" data-name="Group 233">
          <g id="Group_232-2" data-name="Group 232" style="isolation: isolate">
            <path id="Subtraction_1" data-name="Subtraction 1" d="M19.951,80.3a7.4,7.4,0,0,1-1.9-1.119,11.294,11.294,0,0,0-7.4-2.938,10.764,10.764,0,0,0-1.562.116A60.387,60.387,0,0,1,25.177,49.33,32.083,32.083,0,0,1,23.1,45.076h-.022c-.4.03-.807.06-1.2.06h-.3A14.1,14.1,0,0,1,11,40.368,37.945,37.945,0,0,1,6.72,33.9a79.336,79.336,0,0,1-3.4-7.208C1.42,22.144.252,18.4.125,17.992a2.833,2.833,0,0,1,2.384-3.645A64.059,64.059,0,0,1,26.382,16.28a25.681,25.681,0,0,1,3.77-3.941,37.7,37.7,0,0,1,4.9-3.489A46.748,46.748,0,0,1,40.5,6.063,65.3,65.3,0,0,1,52.418,2.3,97.015,97.015,0,0,1,64.607.479C68.192.161,71.957,0,75.8,0c3.536,0,7.077.133,10.523.4C89.083.611,90.81.835,91,.86A2.831,2.831,0,0,1,93.36,4.421c-.1.363-2.486,9.005-6.409,19.531-2.225,5.971-4.52,11.412-6.82,16.169a86.483,86.483,0,0,1-8.551,14.49A24.846,24.846,0,0,1,52.96,64.35c-.558.035-1.139.053-1.724.053A30.539,30.539,0,0,1,29.6,55.237c-.238-.245-.462-.511-.678-.769h0c-.112-.133-.227-.27-.343-.4a54.926,54.926,0,0,0-13.766,22.8A11.35,11.35,0,0,1,19.952,80.3ZM50.976,30.979h0a2.833,2.833,0,0,1,1.248,5.377,96.634,96.634,0,0,0-19.59,13.759l.222.264.029.034c.245.292.5.6.769.873A24.666,24.666,0,0,0,51.31,58.729c.434,0,.872-.012,1.3-.034a19.277,19.277,0,0,0,14.456-7.513,74.29,74.29,0,0,0,6.743-11.089C75.73,36.328,77.673,32,79.587,27.227c3.491-8.7,6.11-16.942,7.361-21.08-2.466-.2-6.382-.438-11.036-.438-3.6,0-7.127.143-10.472.425A93.222,93.222,0,0,0,54.109,7.756c-8.621,1.818-15.453,4.817-20.3,8.912a21.2,21.2,0,0,0-7.316,15.419A26.347,26.347,0,0,0,29.4,45.3,99.118,99.118,0,0,1,49.734,31.268a2.8,2.8,0,0,1,1.242-.289ZM9.921,19.632c-1.072,0-2.158.032-3.227.094A61.98,61.98,0,0,0,15.325,36.7a8.324,8.324,0,0,0,6.126,2.757,31.25,31.25,0,0,1-.619-7.652,28.369,28.369,0,0,1,2.545-10.523,55.629,55.629,0,0,0-13.456-1.65Z" fill="#dd7219"/>
          </g>
        </g>
      </g>
    </g>
  </g>
</svg>
