<svg xmlns="http://www.w3.org/2000/svg" xmlns:xlink="http://www.w3.org/1999/xlink" width="200" height="200" viewBox="0 0 200 200">
  <defs>
    <clipPath id="clip-path">
      <rect id="Rectangle_16" data-name="Rectangle 16" width="200" height="200"/>
    </clipPath>
  </defs>
  <g id="Savings" clip-path="url(#clip-path)">
    <g id="Group_231" data-name="Group 231" transform="translate(-3479 -2494)">
      <g id="piggy-bank-2" transform="translate(3494 2511)">
        <g id="Group_226" data-name="Group 226" transform="translate(126.58 88.154)">
          <g id="Group_225" data-name="Group 225">
            <path id="Path_240" data-name="Path 240" d="M394.933,270.613a2.474,2.474,0,0,0-2.474,2.474,3.141,3.141,0,1,1-6.283,0,2.474,2.474,0,0,0-4.948,0,8.09,8.09,0,0,0,16.179,0A2.474,2.474,0,0,0,394.933,270.613Z" transform="translate(-381.228 -270.613)" fill="#61a2f9"/>
          </g>
        </g>
        <g id="Group_228" data-name="Group 228">
          <g id="Group_227" data-name="Group 227">
            <path id="Path_241" data-name="Path 241" d="M163.507,93.673l-6.963-2.231a2.913,2.913,0,0,1-1.88-1.9,44.9,44.9,0,0,0-6.583-13.02,47.777,47.777,0,0,0-4.4-5.187A61.367,61.367,0,0,0,145.2,57.317c-.1-6.3-1.363-10-3.851-11.3-1.34-.7-5.417-2.837-27.486,7.266a8.03,8.03,0,0,0-1.463.871c-1.488-.4-3.009-.77-4.539-1.1-.184-.04-.374-.076-.56-.115a33.7,33.7,0,0,0,3.029-12.53,2.474,2.474,0,1,0-4.943-.221A28.786,28.786,0,0,1,86.551,65.92a71.746,71.746,0,0,0-19.914,0,28.809,28.809,0,1,1,35.708-40,2.474,2.474,0,1,0,4.42-2.225A33.77,33.77,0,1,0,58.675,67.5h0q-2.307.6-4.575,1.353a2.474,2.474,0,0,0,1.569,4.693,66.4,66.4,0,0,1,41.847,0,2.474,2.474,0,0,0,1.569-4.693Q96.82,68.1,94.51,67.5h0a33.735,33.735,0,0,0,10.27-10.041c.682.132,1.359.271,2.026.416q1.333.289,2.65.618c-.028.108-.056.215-.079.324-1.207,5.726-1.128,10.79.233,15.051a17.912,17.912,0,0,0,6.561,9.223,20.812,20.812,0,0,0,12.178,3.864,16.325,16.325,0,0,0,7.892-1.825c2.326-1.317,4.274-4.093,5.816-8.26q1.069,1.248,2.025,2.557a39.949,39.949,0,0,1,5.859,11.587,7.868,7.868,0,0,0,5.091,5.133L162,98.386a4.381,4.381,0,0,1,3.055,4.186v11.546A4.381,4.381,0,0,1,162,118.3l-11.221,3.6a7.644,7.644,0,0,0-4.277,3.474c-4.408,7.617-11.338,13.921-20.6,18.736a3.876,3.876,0,0,0-2.034,2.733l-3.593,19.026a1.112,1.112,0,0,1-1.092.9H107.5a1.112,1.112,0,0,1-1.092-.9l-1.99-10.515A3.888,3.888,0,0,0,100,152.223a103.423,103.423,0,0,1-15.412,1.147,98.639,98.639,0,0,1-11.339-.641,3.919,3.919,0,0,0-4.287,3.145l-1.891,9.991a1.112,1.112,0,0,1-1.092.9H54.293a1.114,1.114,0,0,1-1.093-.912l-3.46-17.97a3.884,3.884,0,0,0-2-2.7c-15.786-8.427-24.13-22.507-24.13-40.715,0-9.2,2.013-17.335,5.982-24.18a43.166,43.166,0,0,1,16.08-15.7,2.474,2.474,0,0,0-2.472-4.28C29.692,68.122,21.545,80.176,19.3,95.486h0c-.238-.022-.476-.042-.714-.067a12.318,12.318,0,0,0-.906-4.936c-1.435-3.568-4.384-6.143-7.512-6.561a6.837,6.837,0,0,0-6.439,2.867c-2.36,3.119-1.976,5.587-1.237,7.109,1.246,2.568,4.449,4.384,9.765,5.526q-.219.328-.483.659a12.14,12.14,0,0,1-9.243,4.892A2.6,2.6,0,0,0,0,107.559v.012a2.591,2.591,0,0,0,2.482,2.584q.266.012.556.013c3.04,0,7.919-1.121,12.607-7a14.11,14.11,0,0,0,1.807-2.918q.7.079,1.345.138c-.084,1.341-.131,2.7-.131,4.085,0,10.3,2.456,19.488,7.3,27.3a50.018,50.018,0,0,0,19.01,17.541l3.363,17.47a6.064,6.064,0,0,0,5.954,4.933H65.977a6.064,6.064,0,0,0,5.954-4.933l1.71-9.034a104.264,104.264,0,0,0,10.945.567,108.692,108.692,0,0,0,15.159-1.057l1.8,9.524a6.065,6.065,0,0,0,5.954,4.932h11.683a6.065,6.065,0,0,0,5.954-4.934l3.5-18.524c9.884-5.226,17.334-12.092,22.148-20.412a2.7,2.7,0,0,1,1.5-1.239l11.219-3.594a9.315,9.315,0,0,0,6.493-8.9V102.57a9.314,9.314,0,0,0-6.489-8.9Zm-23.629-29.4c-.952,8.143-3.507,15.109-6.073,16.563-2.917,1.653-9.652,1.972-14.709-1.728s-6.748-10.363-4.874-19.26h0a2.985,2.985,0,0,1,1.7-2.067c12.386-5.67,19.527-7.524,22.18-7.524a2.588,2.588,0,0,1,.9.12c.791.846,1.837,5.674.875,13.892ZM6.946,91.737c-.256-.528.348-1.456.731-1.963a1.974,1.974,0,0,1,1.589-.966,1.859,1.859,0,0,1,.249.018c1.138.152,2.731,1.4,3.576,3.5a7.512,7.512,0,0,1,.518,2.333C10.185,93.952,7.524,92.929,6.946,91.737Z" transform="translate(0 -5.115)" fill="#61a2f9"/>
          </g>
        </g>
      </g>
    </g>
    <path id="Path_288" data-name="Path 288" d="M3.648-26.016l-.96,2.976H14.832a5.14,5.14,0,0,1-2.016,3.072c-1.536,1.056-3.84,1.632-6.864,1.632H3.024v3.5a5.717,5.717,0,0,1,3.168.96,11.018,11.018,0,0,1,2.448,2.5L17.232,0h7.1L14.064-13.008A24.228,24.228,0,0,0,11.808-15.6a11.857,11.857,0,0,0,6.144-3.072,7.974,7.974,0,0,0,2.112-4.368H25.2l1.008-2.976H20.16a10.025,10.025,0,0,0-2.112-5.28H25.2l.96-2.976H3.6L2.592-31.3H7.584a8.017,8.017,0,0,1,5.472,1.632,5.713,5.713,0,0,1,1.872,3.648Z" transform="translate(77.98 69.223)" fill="#dd7219"/>
  </g>
</svg>
